HIERARCHY
ROOT Hips
{
  OFFSET -31.5692 30.0904 122.763
  CHANNELS 6 Xposition Yposition Zposition Zrotation Xrotation Yrotation
  JOINT LeftUpLeg
  {
    OFFSET 8.64259 1.95398 -2.38835
    CHANNELS 3 Zrotation Xrotation Yrotation
    JOINT LeftLeg
    {
      OFFSET 43.7702 0 0
      CHANNELS 3 Zrotation Xrotation Yrotation
      JOINT LeftFoot
      {
        OFFSET 40.6238 0 0
        CHANNELS 3 Zrotation Xrotation Yrotation
        JOINT LeftToeBase
        {
          OFFSET 12.7242 0 0
          CHANNELS 3 Zrotation Xrotation Yrotation
          End Site
          {
            OFFSET 0 0 0
          }
        }
      }
    }
  }
  JOINT RightUpLeg
  {
    OFFSET -8.2249 1.95398 -2.59336
    CHANNELS 3 Zrotation Xrotation Yrotation
    JOINT RightLeg
    {
      OFFSET 43.5653 0 0
      CHANNELS 3 Zrotation Xrotation Yrotation
      JOINT RightFoot
      {
        OFFSET 40.6238 0 0
        CHANNELS 3 Zrotation Xrotation Yrotation
        JOINT RightToeBase
        {
          OFFSET 12.7242 0 0
          CHANNELS 3 Zrotation Xrotation Yrotation
          End Site
          {
            OFFSET 0 0 0
          }
        }
      }
    }
  }
  JOINT Spine
  {
    OFFSET 0.165834 0.87714 6.61349
    CHANNELS 3 Zrotation Xrotation Yrotation
    JOINT Spine1
    {
      OFFSET 7.38963 1.71661e-005 0
      CHANNELS 3 Zrotation Xrotation Yrotation
      JOINT Spine2
      {
        OFFSET 11.9445 1.14441e-005 0
        CHANNELS 3 Zrotation Xrotation Yrotation
        JOINT Spine3
        {
          OFFSET 14.7254 4.19617e-005 0
          CHANNELS 3 Zrotation Xrotation Yrotation
          JOINT Spine4
          {
            OFFSET 10.9679 0 0
            CHANNELS 3 Zrotation Xrotation Yrotation
            JOINT RightShoulder
            {
              OFFSET 2.46616 -1.6653 3.69651
              CHANNELS 3 Zrotation Xrotation Yrotation
              JOINT RightArm
              {
                OFFSET 13.0012 0 0
                CHANNELS 3 Zrotation Xrotation Yrotation
                JOINT RightForeArm
                {
                  OFFSET 28.7848 1.62311e-005 0
                  CHANNELS 3 Zrotation Xrotation Yrotation
                  JOINT RightHand
                  {
                    OFFSET 26.5688 1.62095e-005 0
                    CHANNELS 3 Zrotation Xrotation Yrotation
                    End Site
                    {
                      OFFSET 0 0 0
                    }
                  }
                }
              }
            }
            JOINT LeftShoulder
            {
              OFFSET 2.38034 -1.29275 -3.7523
              CHANNELS 3 Zrotation Xrotation Yrotation
              JOINT LeftArm
              {
                OFFSET 16.3182 6.07031e-005 0
                CHANNELS 3 Zrotation Xrotation Yrotation
                JOINT LeftForeArm
                {
                  OFFSET 27.0901 0 0
                  CHANNELS 3 Zrotation Xrotation Yrotation
                  JOINT LeftHand
                  {
                    OFFSET 24.5451 1.51738e-005 0
                    CHANNELS 3 Zrotation Xrotation Yrotation
                    End Site
                    {
                      OFFSET 0 0 0
                    }
                  }
                }
              }
            }
            JOINT Neck
            {
              OFFSET 5.0226 -0.0266342 0
              CHANNELS 3 Zrotation Xrotation Yrotation
              JOINT Head
              {
                OFFSET 6.69364 2.86102e-005 0
                CHANNELS 3 Zrotation Xrotation Yrotation
                End Site
                {
                  OFFSET 0 0 0
                }
              }
            }
          }
        }
      }
    }
  }
}
MOTION
Frames:	12
Frame Time:	0.0416667
34.9776 96.9012 -0.0475345 -111.257 -70.3995 -113.804 -178.48 19.0852 85.1624 -13.1805 11.9585 -0.10168 57.0805 -1.28773 -4.51938 19.2291 -9.27419 9.99554 170.006 -18.1181 87.5504 -25.7541 -27.9589 -3.95256 75.8296 -11.5028 -7.06527 31.9472 -2.07301 3.64384 1.78844 8.07542 -89.8359 10.7275 3.63713 -0.00817005 -0.938359 3.63323 -0.168457 -23.5118 3.47122 1.08666 -3.49915 3.47121 1.08665 87.8824 -28.137 -111.774 27.907 -1.94876 -16.0452 -7.00315 -29.1662 -29.898 -29.1319 0.971969 -14.3553 -85.5757 -57.4662 86.3456 -21.7026 2.37806 8.06594 -0.681455 -1.56405 -0.00101531 1.10206 -0.245827 -11.3276 4.92243 -9.32187 0.511343 -2.4205 -9.36433 -10.8799 
32.4297 97.6296 11.0086 -108 -65.9928 -112.892 -176.35 17.8878 83.0132 -25.7853 10.7613 -1.5247 62.0241 0.150606 -6.92602 16.9425 -12.5624 13.5066 170.062 -14.4526 83.6863 -40.7562 -28.4113 -8.40012 65.3815 -3.02257 -4.26727 33.6572 -3.01881 5.5199 1.65736 7.93367 -89.467 10.9982 3.54634 0.722865 -0.668008 3.57471 0.565885 -23.2339 3.165 1.75619 -3.22123 3.165 1.75619 88.9334 -28.0093 -109.714 35.4714 -7.12568 -13.1863 -0.834126 -33.8929 -22.2882 -26.9988 0.167801 -12.0129 -86.8327 -55.8856 84.3777 -24.4968 1.99393 5.58003 -1.1572 -1.50842 -0.00272176 -0.746376 -0.158607 -13.2601 5.75226 -9.15705 -2.17252 -3.50104 -8.59379 -8.99581 
29.8963 98.4358 19.8036 -106.763 -60.5963 -113.282 -175.281 10.5401 81.4051 -26.746 6.61715 -2.59417 68.1405 3.50092 -6.14435 18.9946 -10.6997 12.5838 173.47 -0.883906 81.7051 -63.7767 -24.0932 -9.23533 59.635 1.11802 -1.60807 20.0521 2.6718 4.93155 1.11682 8.05346 -89.198 10.7498 2.59375 1.35531 -0.919105 2.65088 1.23978 -23.4629 2.06656 2.07227 -3.45025 2.06656 2.07227 88.1753 -29.5143 -110.567 38.587 -8.85748 -9.56868 6.87586 -35.2742 -12.8909 -21.4824 -0.32655 -10.4651 -87.56 -54.9267 83.2016 -23.5724 4.62188 -2.69383 -2.21372 -4.97388 -0.00130923 2.93432 -0.52259 -13.3471 7.26909 -7.41206 -2.88894 -2.96718 -6.72432 -8.16581 
26.9519 99.2743 26.9102 -103.838 -54.9198 -108.86 -174.151 3.63692 82.788 -25.0257 2.83099 -3.03616 73.0071 6.21278 -5.17519 19.6956 -10.0469 12.1972 177.341 11.2238 85.725 -67.2791 -18.0518 -7.57045 66.1344 -3.55806 -4.32599 23.562 1.13576 5.17713 0.566939 8.10059 -89.3628 10.6652 1.42249 1.13708 -1.00539 1.47116 1.07337 -23.5401 1.01504 1.512 -3.52749 1.01503 1.512 88.1505 -30.2878 -110.28 39.7564 -7.00873 -3.47192 8.73501 -38.9955 -9.76024 -21.0675 -1.01342 -6.96062 -88.2728 -54.2721 82.0784 -17.9731 5.05831 -12.3282 -2.57666 -4.19494 0.0362069 4.4029 -0.638778 -13.5034 7.15007 -4.67392 -4.25173 -1.41084 -3.83002 -5.58734 
23.29 99.561 33.5895 -100.352 -49.8138 -102.244 -173.458 -1.75131 84.7342 -22.9142 -1.45433 -2.03043 77.0535 7.65649 -4.2496 19.5757 -10.2474 12.4426 179.817 18.8913 91.9617 -50.6298 -16.7649 -5.12185 68.1517 -5.41262 -4.16275 24.2011 0.48637 6.75501 0.0439764 8.01362 -89.7179 10.8458 0.217933 0.540683 -0.825253 0.241505 0.530562 -23.3595 0.0453595 0.581177 -3.34688 0.045356 0.58117 89.2433 -30.0142 -108.25 38.863 -5.05471 2.12179 7.83267 -34.3322 -10.2725 -21.014 -0.557826 -8.90027 -88.1384 -50.3795 81.5854 -13.5585 3.41556 -16.7335 -2.50124 -1.63509 -0.713088 9.33099 -1.11678 -14.2663 7.08222 -1.87747 -5.95402 -2.32159 -0.676868 -2.8177 
18.9167 98.6655 40.4268 -98.1441 -47.1556 -98.672 -173.098 -7.86821 85.3382 -19.5222 -4.64774 -1.47472 81.2458 9.6945 -4.40137 19.3774 -10.1595 11.9939 178.849 20.1903 95.3543 -23.2588 -11.4959 -0.503579 63.5813 -2.86917 -1.44469 23.8734 1.27608 4.08758 -0.493787 7.92349 -89.9731 11.0272 -0.970455 0.146816 -0.643342 -0.963081 0.189375 -23.1815 -0.969731 -0.151673 -3.16889 -0.969717 -0.151681 90.0896 -30.324 -106.459 35.8263 -3.08369 7.30429 5.96411 -29.5928 -12.4636 -21.349 0.0195554 -11.539 -87.9748 -46.8658 81.1776 -9.96174 0.99388 -21.1177 -1.19668 1.93821 -0.796384 8.58351 -1.49279 -19.4905 7.08734 0.303284 -6.46572 -2.60887 1.60249 0.758249 
13.5161 96.4316 47.9439 -96.5335 -45.9011 -96.5883 -172.338 -14.9497 85.6393 -16.0992 -5.80312 -1.53907 84.8441 12.7779 -3.78137 20.6615 -9.77455 13.0109 179.63 19.5501 97.4825 -6.04742 -0.144961 1.58232 62.0791 -3.09849 -1.0371 23.9572 1.24815 4.04539 -0.730233 7.79379 -90.1379 11.2857 -1.51743 -0.123985 -0.384331 -1.52142 -0.0570749 -22.9257 -1.41 -0.574392 -2.91308 -1.41001 -0.574401 90.8957 -31.4256 -104.483 34.5268 -0.354345 10.5976 5.18324 -25.9344 -11.0097 -24.3923 -0.243873 -8.44095 -88.3279 -46.3372 80.5219 -7.03489 -0.450349 -25.6052 -1.26543 2.63246 -2.18695 7.59735 -1.63202 -22.5924 7.82974 1.03397 -5.65438 -3.14496 2.19087 2.32532 
6.9297 95.2882 56.6014 -97.1177 -47.3912 -95.9051 -170.319 -20.685 88.3635 -17.2365 -3.93329 -1.25238 80.6701 11.8309 -2.62485 33.0917 -2.28059 14.1026 178.503 24.1969 98.5342 -20.7668 -2.15813 1.88237 63.0027 -0.111907 -3.33539 20.6288 2.68142 4.09274 -1.0054 7.73863 -90.4306 11.393 -2.20141 -0.635515 -0.276222 -2.22722 -0.53797 -22.8221 -1.90862 -1.26793 -2.80944 -1.90861 -1.26793 91.5414 -32.3962 -102.909 35.0134 0.546456 10.2851 7.00096 -24.0637 -5.91629 -20.3651 -0.454208 -7.11223 -89.0202 -47.7733 79.7425 -10.8626 -0.614555 -27.1137 0.0879367 6.23951 -4.05243 7.74684 -1.82779 -24.87 9.13494 1.37661 -2.95955 -4.25909 1.97533 2.39979 
-0.357009 96.1877 65.4125 -99.8427 -48.3623 -97.0858 -166.877 -15.0628 94.1519 -36.9595 6.86851 -0.652162 67.1796 3.81476 0.411213 34.3657 -1.02021 12.8199 176.573 21.3621 98.8495 -31.5724 -3.59504 2.8008 65.549 -1.28779 -4.04903 13.2151 5.58583 5.16069 -1.00035 7.75287 -90.5738 11.3597 -2.25813 -0.916294 -0.309545 -2.29627 -0.81599 -22.8538 -1.87835 -1.55273 -2.84116 -1.87833 -1.55273 91.3026 -32.188 -103.437 38.8102 0.405897 9.91752 6.788 -22.5952 -5.96196 -16.2499 -0.088217 -10.3181 -89.2791 -49.6864 79.7425 -16.1006 2.07915 -24.7974 0.183377 18.0024 -2.15298 8.78459 -2.17719 -27.7414 8.2236 1.06903 -0.925121 -4.76158 1.22568 1.57001 
-6.75585 97.42 71.9933 -101.992 -47.811 -96.7515 -165.755 -0.241289 99.4965 -59.419 14.4536 1.39759 58.5397 -2.09888 -1.77402 11.7457 -11.0684 4.63052 176.923 13.6794 101.073 -31.9258 -3.28032 2.64881 69.3498 -4.68035 -4.19517 15.6862 5.14463 3.26803 -0.5729 7.96156 -90.7223 10.9404 -1.47483 -1.29726 -0.730258 -1.53049 -1.23109 -23.264 -1.01682 -1.68047 -3.25133 -1.01685 -1.68048 90.5251 -31.8973 -105.038 39.9135 -1.49533 5.29914 5.82249 -25.7253 -9.6431 -16.6853 0.00154874 -11.9371 -89.4311 -51.7553 79.933 -19.3396 3.65978 -21.7767 -0.786715 26.652 0.159972 5.81079 -0.985657 -25.8196 8.23266 -0.202663 0.237133 -4.60252 -0.257298 0.988578 
-11.6452 98.8793 77.769 -101.267 -45.8019 -97.6669 -170.243 11.5282 94.6124 -61.929 3.1302 2.14322 70.3496 5.45436 1.0072 11.6163 -11.8017 5.82573 176.875 6.08367 99.6072 -27.7013 -6.30866 1.24892 71.2659 -6.43218 -4.3046 18.6442 4.04722 2.4866 -0.0611814 8.00702 -90.4623 10.8624 -0.335389 -0.887013 -0.808889 -0.374084 -0.871405 -23.3415 -0.0533141 -0.946794 -3.32887 -0.0533011 -0.946797 89.888 -31.8316 -106.289 36.8512 -4.24562 -4.01477 5.6447 -27.1237 -11.726 -21.8366 -0.271921 -8.95043 -89.0859 -52.5899 80.6003 -22.4888 6.19189 -15.5864 -2.5004 15.2812 -0.00363564 5.73449 -0.58642 -18.1678 5.76697 -1.28234 1.22956 -3.22327 -1.49201 -0.0995554 
-16.2567 99.4885 83.9014 -99.4294 -40.6408 -98.2911 -174.546 18.3715 89.7816 -46.2595 -3.26159 1.40853 71.2939 6.6919 -0.365959 9.52808 -13.8753 7.20129 175.867 0.41269 96.142 -26.4 -12.0369 -0.766849 73.9514 -7.77344 -3.9697 20.7626 2.95099 2.94047 0.711793 8.09947 -90.123 10.6779 1.36093 -0.36834 -0.992485 1.34342 -0.427894 -23.5331 1.40872 0.0577797 -3.52046 1.40873 0.0577796 89.5237 -30.0588 -107.68 33.8075 -4.99805 -12.3973 2.82968 -28.0444 -16.0628 -23.9404 -0.0924113 -9.80506 -88.9321 -53.4734 80.9885 -23.9678 7.25223 -6.78539 -3.03253 4.3137 -0.00371651 2.66529 -0.18364 -13.5731 5.41562 -1.61435 3.42535 -3.24589 -2.22931 -1.41738 
